<svg xmlns="http://www.w3.org/2000/svg" width="26.284" height="26.278" viewBox="0 0 26.284 26.278">
  <path id="Icon_awesome-instagram" data-name="Icon awesome-instagram" d="M13.14,8.639a6.737,6.737,0,1,0,6.737,6.737A6.727,6.727,0,0,0,13.14,8.639Zm0,11.117a4.38,4.38,0,1,1,4.38-4.38,4.388,4.388,0,0,1-4.38,4.38ZM21.724,8.364a1.571,1.571,0,1,1-1.571-1.571A1.568,1.568,0,0,1,21.724,8.364Zm4.462,1.595a7.777,7.777,0,0,0-2.123-5.506A7.828,7.828,0,0,0,18.557,2.33c-2.17-.123-8.672-.123-10.842,0A7.817,7.817,0,0,0,2.21,4.447,7.8,7.8,0,0,0,.087,9.953c-.123,2.17-.123,8.672,0,10.842A7.777,7.777,0,0,0,2.21,26.3a7.838,7.838,0,0,0,5.506,2.123c2.17.123,8.672.123,10.842,0A7.777,7.777,0,0,0,24.063,26.3a7.828,7.828,0,0,0,2.123-5.506c.123-2.17.123-8.666,0-10.836Zm-2.8,13.164a4.435,4.435,0,0,1-2.5,2.5c-1.73.686-5.834.528-7.746.528s-6.022.152-7.746-.528a4.435,4.435,0,0,1-2.5-2.5c-.686-1.73-.528-5.834-.528-7.746S2.216,9.355,2.9,7.631a4.435,4.435,0,0,1,2.5-2.5c1.73-.686,5.834-.528,7.746-.528s6.022-.152,7.746.528a4.435,4.435,0,0,1,2.5,2.5c.686,1.73.528,5.834.528,7.746S24.069,21.4,23.383,23.122Z" transform="translate(0.005 -2.238)" fill="#fff"/>
</svg>
