<svg xmlns="http://www.w3.org/2000/svg" width="121.002" height="121" viewBox="0 0 121.002 121">
  <path id="Subtração_6" data-name="Subtração 6" d="M12635.5-6919a60.111,60.111,0,0,1-23.55-4.754,60.3,60.3,0,0,1-19.232-12.965,60.322,60.322,0,0,1-12.965-19.23A60.108,60.108,0,0,1,12575-6979.5a60.118,60.118,0,0,1,4.753-23.55,60.32,60.32,0,0,1,12.966-19.23,60.3,60.3,0,0,1,19.232-12.966A60.14,60.14,0,0,1,12635.5-7040a60.137,60.137,0,0,1,23.55,4.754,60.286,60.286,0,0,1,19.231,12.965,60.316,60.316,0,0,1,12.966,19.23A60.116,60.116,0,0,1,12696-6979.5a60.129,60.129,0,0,1-4.753,23.548,60.312,60.312,0,0,1-12.967,19.23,60.316,60.316,0,0,1-19.231,12.965A60.132,60.132,0,0,1,12635.5-6919Zm1.585-66.625a8.034,8.034,0,0,0-1.518.14,5.673,5.673,0,0,0-.909.243,13.9,13.9,0,0,0-1.911.975l-.018.01a11.53,11.53,0,0,0-1.8,1.2,5.762,5.762,0,0,0-.662.666,11.521,11.521,0,0,0-2.352,5.55c-.205,1.113-.4,2.185-.589,3.221l-.079.434c-.432,2.371-.8,4.369-1.236,6.685q-.119.444-.242.9c-1.27,4.667-2.708,9.958.589,14.115a9.058,9.058,0,0,0,6.252,2.715,8.232,8.232,0,0,0,2.485-.392,4.253,4.253,0,0,0,.762-.363,40.164,40.164,0,0,0,3.6-2.589,75.909,75.909,0,0,1,8.229-5.713l.43-.246a76.975,76.975,0,0,1,9.136-4.314h.011a22.643,22.643,0,0,0,4.651-2.251,8.778,8.778,0,0,0,2.358-8.73c-1.943-4.969-7.243-6.369-11.919-7.6l-.9-.238c-1.209-.429-2.348-.836-3.605-1.287-1.988-.712-4.043-1.448-6.3-2.234a13.563,13.563,0,0,0-4.464-.879Zm-23.579,2.413a6.884,6.884,0,0,0-3.433.922,6.839,6.839,0,0,0-3.2,4.175,6.826,6.826,0,0,0,.688,5.215,6.905,6.905,0,0,0,5.96,3.441,6.91,6.91,0,0,0,3.429-.924,6.884,6.884,0,0,0,2.518-9.393,6.9,6.9,0,0,0-5.957-3.437Zm5.214-15.714a6.877,6.877,0,0,0-3.432.922,6.823,6.823,0,0,0-3.2,4.174,6.826,6.826,0,0,0,.688,5.215,6.9,6.9,0,0,0,5.96,3.439,6.866,6.866,0,0,0,3.432-.921,6.881,6.881,0,0,0,2.515-9.391,6.9,6.9,0,0,0-5.982-3.442Zm30.509-4.911a6.883,6.883,0,0,0-3.434.923,6.816,6.816,0,0,0-3.2,4.172,6.831,6.831,0,0,0,.688,5.217,6.9,6.9,0,0,0,5.961,3.438,6.87,6.87,0,0,0,3.428-.921,6.885,6.885,0,0,0,2.519-9.393,6.9,6.9,0,0,0-5.99-3.439Zm-16.218-3.339a6.868,6.868,0,0,0-3.432.923,6.883,6.883,0,0,0-2.517,9.39,6.893,6.893,0,0,0,5.949,3.438h.01a6.9,6.9,0,0,0,3.433-.919,6.833,6.833,0,0,0,3.2-4.175,6.822,6.822,0,0,0-.685-5.216,6.9,6.9,0,0,0-5.959-3.439Z" transform="translate(-12575 7039.999)" fill="#fff"/>
</svg>
