<svg xmlns="http://www.w3.org/2000/svg" width="26.278" height="26.278" viewBox="0 0 26.278 26.278">
  <path id="Icon_awesome-whatsapp" data-name="Icon awesome-whatsapp" d="M22.342,6.068A13.026,13.026,0,0,0,1.848,21.782L0,28.528l6.9-1.812A12.982,12.982,0,0,0,13.127,28.3h.006A13.147,13.147,0,0,0,26.278,15.277,13.073,13.073,0,0,0,22.342,6.068ZM13.133,26.105A10.8,10.8,0,0,1,7.619,24.6l-.393-.235L3.132,25.437l1.091-3.994-.258-.411a10.844,10.844,0,1,1,20.113-5.754A10.944,10.944,0,0,1,13.133,26.105ZM19.069,18c-.323-.164-1.924-.95-2.223-1.056s-.516-.164-.733.164-.839,1.056-1.032,1.279-.381.246-.7.082A8.857,8.857,0,0,1,9.948,14.6c-.334-.575.334-.534.956-1.777a.6.6,0,0,0-.029-.569c-.082-.164-.733-1.766-1-2.417-.264-.633-.534-.545-.733-.557s-.4-.012-.622-.012a1.205,1.205,0,0,0-.868.4,3.656,3.656,0,0,0-1.138,2.716,6.374,6.374,0,0,0,1.326,3.367A14.539,14.539,0,0,0,13.4,20.668c2.065.892,2.874.968,3.906.815A3.333,3.333,0,0,0,19.5,19.935a2.721,2.721,0,0,0,.188-1.549C19.609,18.24,19.392,18.157,19.069,18Z" transform="translate(0 -2.25)" fill="#fff"/>
</svg>
