<svg xmlns="http://www.w3.org/2000/svg" width="33.7" height="23.695" viewBox="0 0 33.7 23.695">
  <path id="Icon_awesome-youtube" data-name="Icon awesome-youtube" d="M34.046,8.207a4.234,4.234,0,0,0-2.979-3C28.438,4.5,17.9,4.5,17.9,4.5s-10.538,0-13.166.709a4.235,4.235,0,0,0-2.979,3,44.421,44.421,0,0,0-.7,8.164,44.421,44.421,0,0,0,.7,8.164,4.171,4.171,0,0,0,2.979,2.951C7.362,28.2,17.9,28.2,17.9,28.2s10.538,0,13.166-.709a4.171,4.171,0,0,0,2.979-2.951,44.421,44.421,0,0,0,.7-8.164,44.421,44.421,0,0,0-.7-8.164ZM14.453,21.382V11.361l8.808,5.011-8.808,5.011Z" transform="translate(-1.05 -4.5)" fill="#fff"/>
</svg>
